<svg xmlns="http://www.w3.org/2000/svg" viewBox="0 0 100 100" width="100" height="100">
  <!-- 牙齿主体 -->
  <path d="M50,10 C35,10 25,15 20,25 C15,35 15,45 10,60 C5,75 10,85 15,90 C20,95 25,90 30,80 C35,70 40,60 45,80 C50,100 55,100 60,80 C65,60 70,70 75,80 C80,90 85,95 90,90 C95,85 100,75 95,60 C90,45 90,35 85,25 C80,15 65,10 50,10 Z" 
        fill="#ffffff" 
        stroke="#007aff" 
        stroke-width="3"/>
  
  <!-- 牙根 -->
  <path d="M40,60 C40,70 35,80 35,90" 
        fill="none" 
        stroke="#007aff" 
        stroke-width="2" 
        stroke-linecap="round"/>
  
  <path d="M60,60 C60,70 65,80 65,90" 
        fill="none" 
        stroke="#007aff" 
        stroke-width="2" 
        stroke-linecap="round"/>
  
  <!-- 牙冠细节 -->
  <path d="M35,30 C40,35 45,35 50,30 C55,35 60,35 65,30" 
        fill="none" 
        stroke="#007aff" 
        stroke-width="2" 
        stroke-linecap="round"/>
</svg> 